<?xml version="1.0" encoding="utf-8"?>
<!-- Generator: Adobe Illustrator 17.0.1, SVG Export Plug-In . SVG Version: 6.00 Build 0)  -->
<!DOCTYPE svg PUBLIC "-//W3C//DTD SVG 1.1//EN" "http://www.w3.org/Graphics/SVG/1.1/DTD/svg11.dtd">
<svg version="1.1" xmlns="http://www.w3.org/2000/svg" xmlns:xlink="http://www.w3.org/1999/xlink" x="0px" y="0px"
	 width="270.446px" height="270.447px" viewBox="0 0 270.446 270.447" enable-background="new 0 0 270.446 270.447"
	 xml:space="preserve">
<g id="Background">
	<g id="Frame">
	</g>
	<g id="Text">
	</g>
</g>
<g id="White">
</g>
<g id="Blue">
	<path id="Blue_1_" fill="#3B5999" d="M253.939,1.776H16.507c-8.138,0-14.73,6.594-14.73,14.73V253.94
		c0,8.135,6.593,14.731,14.73,14.731h127.826V165.315h-34.781v-40.28h34.781V95.331c0-34.473,21.054-53.244,51.806-53.244
		c14.73,0,27.391,1.097,31.081,1.587V79.7l-21.33,0.01c-16.724,0-19.962,7.947-19.962,19.609v25.717h39.887l-5.194,40.28h-34.693
		v103.356h68.012c8.134,0,14.73-6.596,14.73-14.731V16.507C268.669,8.37,262.074,1.776,253.939,1.776z"/>
</g>
</svg>
