<?xml version="1.0" encoding="utf-8"?>
<!-- Generator: Adobe Illustrator 17.0.1, SVG Export Plug-In . SVG Version: 6.00 Build 0)  -->
<!DOCTYPE svg PUBLIC "-//W3C//DTD SVG 1.1//EN" "http://www.w3.org/Graphics/SVG/1.1/DTD/svg11.dtd">
<svg version="1.1" id="Layer_2" xmlns="http://www.w3.org/2000/svg" xmlns:xlink="http://www.w3.org/1999/xlink" x="0px" y="0px"
	 width="619px" height="76px" viewBox="0 0 619 76" enable-background="new 0 0 619 76" xml:space="preserve">
<g>
	<rect fill="#490C2E" width="620" height="76"/>
	<g>
		<polygon fill="#FFFFFF" points="96.354,11 90.624,11 65.922,65 72.193,65 93.411,17.001 114.474,65 121.055,65 		"/>
		<polygon fill="#FFFFFF" points="323.311,11 317.581,11 292.878,65 299.152,65 320.369,17.001 341.431,65 348.013,65 		"/>
		<path fill="#FFFFFF" d="M17.397,57.638l3.821-4.523c5.693,5.147,11.152,7.721,18.717,7.721c7.331,0,12.166-3.899,12.166-9.28
			v-0.156c0-5.069-2.73-7.955-14.193-10.372c-12.556-2.73-18.327-6.785-18.327-15.753v-0.156c0-8.579,7.565-14.896,17.937-14.896
			c7.955,0,13.648,2.262,19.185,6.707l-3.588,4.757c-5.069-4.133-10.138-5.927-15.753-5.927c-7.097,0-11.62,3.9-11.62,8.813v0.156
			c0,5.147,2.807,8.033,14.818,10.606c12.166,2.652,17.781,7.097,17.781,15.441v0.156c0,9.358-7.799,15.441-18.639,15.441
			C31.045,66.373,23.948,63.488,17.397,57.638z"/>
		<path fill="#FFFFFF" d="M140.3,16.695h-18.327v-5.693h42.893v5.693h-18.327v48.898H140.3V16.695z"/>
		<path fill="#FFFFFF" d="M177.731,11.002h6.161v54.591h-6.161V11.002z"/>
		<path fill="#FFFFFF" d="M197.069,57.638l3.821-4.523c5.693,5.147,11.152,7.721,18.717,7.721c7.331,0,12.165-3.899,12.165-9.28
			v-0.156c0-5.069-2.729-7.955-14.193-10.372c-12.556-2.73-18.327-6.785-18.327-15.753v-0.156c0-8.579,7.565-14.896,17.937-14.896
			c7.955,0,13.648,2.262,19.185,6.707l-3.588,4.757c-5.069-4.133-10.138-5.927-15.753-5.927c-7.097,0-11.62,3.9-11.62,8.813v0.156
			c0,5.147,2.807,8.033,14.817,10.606c12.166,2.652,17.781,7.097,17.781,15.441v0.156c0,9.358-7.799,15.441-18.639,15.441
			C210.717,66.373,203.62,63.488,197.069,57.638z"/>
		<path fill="#FFFFFF" d="M251.346,11.002h39.228v5.693h-33.067v19.497h29.557v5.615h-29.557v23.786h-6.161V11.002z"/>
		<path fill="#FFFFFF" d="M353.817,38.454v-0.156c0-15.441,11.542-28.231,27.607-28.231c9.905,0,15.832,3.509,21.291,8.656
			l-4.212,4.524c-4.6-4.368-9.747-7.487-17.156-7.487c-12.089,0-21.136,9.827-21.136,22.383v0.156
			c0,12.634,9.125,22.538,21.136,22.538c7.486,0,12.399-2.885,17.624-7.876l4.056,3.977c-5.693,5.771-11.933,9.592-21.836,9.592
			C365.438,66.529,353.817,54.129,353.817,38.454z"/>
		<path fill="#FFFFFF" d="M428.994,16.695h-18.327v-5.693h42.893v5.693h-18.327v48.898h-6.239V16.695z"/>
		<path fill="#FFFFFF" d="M466.425,11.002h6.161v54.591h-6.161V11.002z"/>
		<path fill="#FFFFFF" d="M486.933,38.454v-0.156c0-15.051,11.308-28.231,27.92-28.231c16.611,0,27.763,13.024,27.763,28.075v0.156
			c0,15.051-11.308,28.231-27.92,28.231C498.085,66.529,486.933,53.506,486.933,38.454z M536.221,38.454v-0.156
			c0-12.4-9.047-22.538-21.525-22.538c-12.478,0-21.368,9.982-21.368,22.383v0.156c0,12.4,9.047,22.538,21.525,22.538
			C527.33,60.836,536.221,50.854,536.221,38.454z"/>
		<path fill="#FFFFFF" d="M556.416,11.002h5.771l34.392,43.751V11.002h6.005v54.591h-4.914l-35.251-44.764v44.764h-6.004V11.002z"/>
	</g>
</g>
</svg>
