<?xml version="1.0" encoding="utf-8"?>
<!-- Generator: Adobe Illustrator 17.0.1, SVG Export Plug-In . SVG Version: 6.00 Build 0)  -->
<!DOCTYPE svg PUBLIC "-//W3C//DTD SVG 1.1//EN" "http://www.w3.org/Graphics/SVG/1.1/DTD/svg11.dtd">
<svg version="1.1" id="Layer_1" xmlns="http://www.w3.org/2000/svg" xmlns:xlink="http://www.w3.org/1999/xlink" x="0px" y="0px"
	 width="1224px" height="792px" viewBox="0 0 1224 792" enable-background="new 0 0 1224 792" xml:space="preserve">
<path fill="#6BACDF" d="M1086.449,101.712c-34.912,15.483-72.43,25.95-111.813,30.655c40.196-24.093,71.065-62.245,85.599-107.705
	c-37.613,22.31-79.277,38.512-123.622,47.243c-35.512-37.837-86.107-61.479-142.099-61.479
	c-107.519,0-194.684,87.165-194.684,194.674c0,15.26,1.722,30.116,5.04,44.365c-161.795-8.118-305.243-85.622-401.261-203.405
	c-16.758,28.753-26.357,62.194-26.357,97.873c0,67.539,34.37,127.127,86.605,162.039c-31.912-1.01-61.93-9.768-88.178-24.35
	c-0.014,0.814-0.017,1.627-0.017,2.447c0,94.325,67.106,173.009,156.165,190.892c-16.337,4.447-33.536,6.826-51.29,6.826
	c-12.545,0-24.74-1.22-36.627-3.491c24.774,77.342,96.669,133.628,181.858,135.201c-66.628,52.212-150.569,83.334-241.777,83.334
	c-15.714,0-31.211-0.922-46.44-2.718c86.155,55.236,188.484,87.463,298.423,87.463c358.085,0,553.898-296.644,553.898-553.903
	c0-8.44-0.19-16.836-0.563-25.184C1027.343,175.041,1060.35,140.752,1086.449,101.712z"/>
</svg>
